<svg width="44" height="43" viewBox="0 0 44 43" fill="none" xmlns="http://www.w3.org/2000/svg">
<path d="M38.5 12.5417V34.0417C38.5 35.0271 38.1413 35.871 37.4238 36.5733C36.7064 37.2756 35.8429 37.6262 34.8333 37.625H9.16667C8.15833 37.625 7.29544 37.2744 6.578 36.5733C5.86056 35.8722 5.50122 35.0283 5.5 34.0417V8.95833C5.5 7.97292 5.85933 7.12964 6.578 6.4285C7.29667 5.72736 8.15956 5.37619 9.16667 5.375H31.1667L38.5 12.5417ZM22 32.25C23.5278 32.25 24.8264 31.7274 25.8958 30.6823C26.9653 29.6372 27.5 28.3681 27.5 26.875C27.5 25.3819 26.9653 24.1128 25.8958 23.0677C24.8264 22.0226 23.5278 21.5 22 21.5C20.4722 21.5 19.1736 22.0226 18.1042 23.0677C17.0347 24.1128 16.5 25.3819 16.5 26.875C16.5 28.3681 17.0347 29.6372 18.1042 30.6823C19.1736 31.7274 20.4722 32.25 22 32.25ZM11 17.9167H27.5V10.75H11V17.9167Z" fill="white"/>
</svg>
