<svg width="40" height="41" viewBox="0 0 40 41" fill="none" xmlns="http://www.w3.org/2000/svg">
<path d="M18.3333 6.83333H6.66659C5.78253 6.83333 4.93468 7.1933 4.30956 7.83405C3.68444 8.4748 3.33325 9.34384 3.33325 10.25V34.1667C3.33325 35.0728 3.68444 35.9419 4.30956 36.5826C4.93468 37.2234 5.78253 37.5833 6.66659 37.5833H29.9999C30.884 37.5833 31.7318 37.2234 32.3569 36.5826C32.9821 35.9419 33.3333 35.0728 33.3333 34.1667V22.2083M30.8333 4.27083C31.4963 3.59122 32.3956 3.20941 33.3333 3.20941C34.2709 3.20941 35.1702 3.59122 35.8333 4.27083C36.4963 4.95045 36.8688 5.87221 36.8688 6.83333C36.8688 7.79446 36.4963 8.71622 35.8333 9.39583L19.9999 25.625L13.3333 27.3333L14.9999 20.5L30.8333 4.27083Z" stroke="white" stroke-width="4" stroke-linecap="round" stroke-linejoin="round"/>
</svg>
