<svg width="71" height="57" viewBox="0 0 71 57" fill="none" xmlns="http://www.w3.org/2000/svg">
<path d="M46.741 35.0405H42.0707V39.7108H46.741V35.0405ZM46.741 25.7108H42.0707V30.3812H46.741V25.7108ZM46.741 16.3702H42.0707V21.0405H46.741V16.3702ZM37.4004 25.7108H32.7301V30.3812H37.4004V25.7108ZM37.4004 16.3702H32.7301V21.0405H37.4004V16.3702ZM37.4004 35.0405H32.7301V39.7108H37.4004V35.0405ZM56.0707 16.3702H51.4004V21.0405H56.0707V16.3702ZM56.0707 25.7108H51.4004V30.3812H56.0707V25.7108ZM56.0707 35.0405H51.4004V39.7108H56.0707V35.0405ZM18.741 44.3702H14.0707V49.0405H18.741V44.3702ZM18.741 35.0405H14.0707V39.7108H18.741V35.0405ZM37.4004 44.3702H32.7301V49.0405H37.4004V44.3702ZM28.0707 44.3702H23.4004V49.0405H28.0707V44.3702ZM7.07068 0.0405273V56.0405H63.0707V0.0405273H7.07068ZM58.4004 51.3702H11.741V14.0405H58.4113V51.3702H58.4004ZM18.741 25.7108H14.0707V30.3812H18.741V25.7108ZM28.0707 35.0405H23.4004V39.7108H28.0707V35.0405ZM28.0707 16.3702H23.4004V21.0405H28.0707V16.3702ZM28.0707 25.7108H23.4004V30.3812H28.0707V25.7108ZM46.741 44.3702H42.0707V49.0405H46.741V44.3702Z" fill="#1E1E1E" fill-opacity="0.9"/>
</svg>
