<svg width="60" height="56" viewBox="0 0 60 56" fill="none" xmlns="http://www.w3.org/2000/svg">
<path d="M41.4667 35H36.7964V39.6703H41.4667V35ZM41.4667 25.6703H36.7964V30.3406H41.4667V25.6703ZM41.4667 16.3297H36.7964V21H41.4667V16.3297ZM32.1261 25.6703H27.4558V30.3406H32.1261V25.6703ZM32.1261 16.3297H27.4558V21H32.1261V16.3297ZM32.1261 35H27.4558V39.6703H32.1261V35ZM50.7964 16.3297H46.1261V21H50.7964V16.3297ZM50.7964 25.6703H46.1261V30.3406H50.7964V25.6703ZM50.7964 35H46.1261V39.6703H50.7964V35ZM13.4667 44.3297H8.79639V49H13.4667V44.3297ZM13.4667 35H8.79639V39.6703H13.4667V35ZM32.1261 44.3297H27.4558V49H32.1261V44.3297ZM22.7964 44.3297H18.1261V49H22.7964V44.3297ZM1.79639 0V56H57.7964V0H1.79639ZM53.1261 51.3297H6.4667V14H53.137V51.3297H53.1261ZM13.4667 25.6703H8.79639V30.3406H13.4667V25.6703ZM22.7964 35H18.1261V39.6703H22.7964V35ZM22.7964 16.3297H18.1261V21H22.7964V16.3297ZM22.7964 25.6703H18.1261V30.3406H22.7964V25.6703ZM41.4667 44.3297H36.7964V49H41.4667V44.3297Z" fill="#1E1E1E" fill-opacity="0.9"/>
</svg>
