<svg width="50" height="45" viewBox="0 0 50 45" fill="none" xmlns="http://www.w3.org/2000/svg">
<path d="M42.75 13.5C42.1125 13.5 41.5785 13.284 41.148 12.852C40.7175 12.42 40.5015 11.886 40.5 11.25V9.00001H38.25C37.6125 9.00001 37.0785 8.78401 36.648 8.35201C36.2175 7.92001 36.0015 7.38601 36 6.75001C35.9985 6.11401 36.2145 5.58001 36.648 5.14801C37.0815 4.71601 37.6155 4.50001 38.25 4.50001H40.5V2.25001C40.5 1.61251 40.716 1.07851 41.148 0.648008C41.58 0.217508 42.114 0.00150776 42.75 7.75862e-06C43.386 -0.00149224 43.9207 0.214508 44.3542 0.648008C44.7878 1.08151 45.003 1.61551 45 2.25001V4.50001H47.25C47.8875 4.50001 48.4222 4.71601 48.8542 5.14801C49.2862 5.58001 49.5015 6.11401 49.5 6.75001C49.4985 7.38601 49.2825 7.92076 48.852 8.35426C48.4215 8.78776 47.8875 9.00301 47.25 9.00001H45V11.25C45 11.8875 44.784 12.4223 44.352 12.8543C43.92 13.2863 43.386 13.5015 42.75 13.5ZM22.5 37.125C25.3125 37.125 27.7035 36.141 29.673 34.173C31.6425 32.205 32.6265 29.814 32.625 27C32.6235 24.186 31.6395 21.7958 29.673 19.8293C27.7065 17.8628 25.3155 16.878 22.5 16.875C19.6845 16.872 17.2943 17.8568 15.3293 19.8293C13.3643 21.8018 12.3795 24.192 12.375 27C12.3705 29.808 13.3553 32.199 15.3293 34.173C17.3033 36.147 19.6935 37.131 22.5 37.125ZM22.5 32.625C20.925 32.625 19.5938 32.0813 18.5063 30.9938C17.4188 29.9063 16.875 28.575 16.875 27C16.875 25.425 17.4188 24.0938 18.5063 23.0063C19.5938 21.9188 20.925 21.375 22.5 21.375C24.075 21.375 25.4062 21.9188 26.4937 23.0063C27.5812 24.0938 28.125 25.425 28.125 27C28.125 28.575 27.5812 29.9063 26.4937 30.9938C25.4062 32.0813 24.075 32.625 22.5 32.625ZM4.5 45C3.2625 45 2.2035 44.5598 1.323 43.6793C0.4425 42.7988 0.0015 41.739 0 40.5V13.5C0 12.2625 0.441 11.2035 1.323 10.323C2.205 9.44251 3.264 9.00151 4.5 9.00001H11.5875L14.4 5.96251C14.8125 5.51251 15.3097 5.15626 15.8917 4.89376C16.4737 4.63126 17.0828 4.50001 17.7188 4.50001H29.25C29.8875 4.50001 30.4223 4.71601 30.8542 5.14801C31.2863 5.58001 31.5015 6.11401 31.5 6.75001V10.125C31.5 11.0625 31.8285 11.8598 32.4855 12.5168C33.1425 13.1738 33.939 13.5015 34.875 13.5H36V14.625C36 15.5625 36.3285 16.3598 36.9855 17.0168C37.6425 17.6738 38.439 18.0015 39.375 18H42.75C43.3875 18 43.9222 18.216 44.3542 18.648C44.7862 19.08 45.0015 19.614 45 20.25V40.5C45 41.7375 44.5597 42.7973 43.6792 43.6793C42.7988 44.5613 41.739 45.0015 40.5 45H4.5Z" fill="#1E1E1E" fill-opacity="0.9"/>
</svg>
