<svg width="41" height="40" viewBox="0 0 41 40" fill="none" xmlns="http://www.w3.org/2000/svg">
<path d="M18.0387 10.5475H21.6712V28.0675H18.0387V10.5475Z" fill="url(#paint0_linear_913_9572)"/>
<path d="M18.0387 10.5475H21.6712V28.0675H18.0387V10.5475Z" fill="url(#paint1_linear_913_9572)"/>
<path d="M18.0387 10.5475H21.6712V28.0675H18.0387V10.5475Z" fill="url(#paint2_linear_913_9572)"/>
<path d="M18.0387 10.5475H21.6712V28.0675H18.0387V10.5475Z" fill="url(#paint3_linear_913_9572)"/>
<path d="M18.0387 10.5475H21.6712V28.0675H18.0387V10.5475Z" fill="url(#paint4_linear_913_9572)"/>
<g filter="url(#filter0_f_913_9572)">
<path d="M19.855 11.1725H20.5612V26.8538H19.855V11.1725Z" fill="url(#paint5_linear_913_9572)"/>
</g>
<path d="M19.25 16.99C19.25 12.4825 23.41 9.12125 29.1125 8.8275H37.4125C37.6937 8.8275 37.9212 9.05625 37.9212 9.33875C37.4112 14.18 34.7187 17.11 28.3512 17.5H19.76C19.6249 17.4993 19.4956 17.4454 19.4001 17.3499C19.3046 17.2544 19.2507 17.1251 19.25 16.99Z" fill="url(#paint6_linear_913_9572)"/>
<path d="M19.25 16.99C19.25 12.4825 23.41 9.12125 29.1125 8.8275H37.4125C37.6937 8.8275 37.9212 9.05625 37.9212 9.33875C37.4112 14.18 34.7187 17.11 28.3512 17.5H19.76C19.6249 17.4993 19.4956 17.4454 19.4001 17.3499C19.3046 17.2544 19.2507 17.1251 19.25 16.99Z" fill="url(#paint7_linear_913_9572)"/>
<path d="M19.25 16.99C19.25 12.4825 23.41 9.12125 29.1125 8.8275H37.4125C37.6937 8.8275 37.9212 9.05625 37.9212 9.33875C37.4112 14.18 34.7187 17.11 28.3512 17.5H19.76C19.6249 17.4993 19.4956 17.4454 19.4001 17.3499C19.3046 17.2544 19.2507 17.1251 19.25 16.99Z" fill="url(#paint8_linear_913_9572)"/>
<path d="M19.25 16.99C19.25 12.4825 23.41 9.12125 29.1125 8.8275H37.4125C37.6937 8.8275 37.9212 9.05625 37.9212 9.33875C37.4112 14.18 34.7187 17.11 28.3512 17.5H19.76C19.6249 17.4993 19.4956 17.4454 19.4001 17.3499C19.3046 17.2544 19.2507 17.1251 19.25 16.99Z" fill="url(#paint9_radial_913_9572)"/>
<g filter="url(#filter1_f_913_9572)">
<path d="M20.4313 16.1288C20.4313 12.6363 24.4725 10.0325 29.005 9.805H36.3588C36.4114 9.80417 36.4637 9.81374 36.5126 9.83316C36.5615 9.85258 36.6062 9.88147 36.6439 9.91817C36.6816 9.95486 36.7118 9.99865 36.7326 10.047C36.7533 10.0954 36.7644 10.1474 36.765 10.2C36.3588 13.95 33.46 16.2213 28.4 16.5238H20.8375C20.7849 16.5246 20.7326 16.515 20.6837 16.4956C20.6348 16.4762 20.5901 16.4473 20.5524 16.4106C20.5147 16.3739 20.4845 16.3301 20.4637 16.2817C20.443 16.2334 20.4319 16.1814 20.4313 16.1288Z" fill="url(#paint10_linear_913_9572)"/>
</g>
<g filter="url(#filter2_i_913_9572)">
<path d="M21.6725 10.6625C21.6725 6.15375 17.5113 2.7925 11.8088 2.5H3.51C3.37494 2.50066 3.2456 2.5546 3.1501 2.6501C3.0546 2.7456 3.00066 2.87494 3 3.01C3.51 7.85125 6.20375 10.7812 12.57 11.1725H21.1613C21.2967 11.1722 21.4266 11.1182 21.5224 11.0224C21.6182 10.9266 21.6722 10.798 21.6725 10.6625Z" fill="url(#paint11_linear_913_9572)"/>
</g>
<g filter="url(#filter3_f_913_9572)">
<path d="M20.5625 9.4725C20.5625 6.36625 17.0512 4.05 12.2387 3.8475H5.23749C4.99999 3.8475 4.8075 4.005 4.8075 4.19875C5.2375 7.53625 7.51 9.555 12.8825 9.82375H20.1325C20.37 9.82375 20.5637 9.66625 20.5637 9.47375" fill="url(#paint12_linear_913_9572)"/>
</g>
<g filter="url(#filter4_i_913_9572)">
<path d="M19.8938 26.1725C13.5688 26.1725 8.40252 30.9038 8.06252 36.8625C8.04252 37.2075 8.32502 37.4875 8.67002 37.4875H31.13C31.2116 37.4886 31.2925 37.473 31.3679 37.4418C31.4432 37.4105 31.5114 37.3642 31.5683 37.3058C31.6252 37.2473 31.6695 37.1778 31.6986 37.1016C31.7277 37.0254 31.7409 36.944 31.7375 36.8625C31.3975 30.9038 26.23 26.1725 19.8938 26.1725Z" fill="url(#paint13_radial_913_9572)"/>
<path d="M19.8938 26.1725C13.5688 26.1725 8.40252 30.9038 8.06252 36.8625C8.04252 37.2075 8.32502 37.4875 8.67002 37.4875H31.13C31.2116 37.4886 31.2925 37.473 31.3679 37.4418C31.4432 37.4105 31.5114 37.3642 31.5683 37.3058C31.6252 37.2473 31.6695 37.1778 31.6986 37.1016C31.7277 37.0254 31.7409 36.944 31.7375 36.8625C31.3975 30.9038 26.23 26.1725 19.8938 26.1725Z" fill="url(#paint14_linear_913_9572)"/>
<path d="M19.8938 26.1725C13.5688 26.1725 8.40252 30.9038 8.06252 36.8625C8.04252 37.2075 8.32502 37.4875 8.67002 37.4875H31.13C31.2116 37.4886 31.2925 37.473 31.3679 37.4418C31.4432 37.4105 31.5114 37.3642 31.5683 37.3058C31.6252 37.2473 31.6695 37.1778 31.6986 37.1016C31.7277 37.0254 31.7409 36.944 31.7375 36.8625C31.3975 30.9038 26.23 26.1725 19.8938 26.1725Z" fill="url(#paint15_radial_913_9572)"/>
<path d="M19.8938 26.1725C13.5688 26.1725 8.40252 30.9038 8.06252 36.8625C8.04252 37.2075 8.32502 37.4875 8.67002 37.4875H31.13C31.2116 37.4886 31.2925 37.473 31.3679 37.4418C31.4432 37.4105 31.5114 37.3642 31.5683 37.3058C31.6252 37.2473 31.6695 37.1778 31.6986 37.1016C31.7277 37.0254 31.7409 36.944 31.7375 36.8625C31.3975 30.9038 26.23 26.1725 19.8938 26.1725Z" fill="url(#paint16_radial_913_9572)"/>
</g>
<g filter="url(#filter5_f_913_9572)">
<path d="M15.08 4.10125C16.525 4.375 19.6337 5.7975 20.5087 9.29625" stroke="url(#paint17_linear_913_9572)" stroke-width="0.25" stroke-linecap="round"/>
</g>
<defs>
<filter id="filter0_f_913_9572" x="19.355" y="10.6725" width="1.7063" height="16.6812" filterUnits="userSpaceOnUse" color-interpolation-filters="sRGB">
<feFlood flood-opacity="0" result="BackgroundImageFix"/>
<feBlend mode="normal" in="SourceGraphic" in2="BackgroundImageFix" result="shape"/>
<feGaussianBlur stdDeviation="0.25" result="effect1_foregroundBlur_913_9572"/>
</filter>
<filter id="filter1_f_913_9572" x="19.4313" y="8.80495" width="18.3337" height="8.71885" filterUnits="userSpaceOnUse" color-interpolation-filters="sRGB">
<feFlood flood-opacity="0" result="BackgroundImageFix"/>
<feBlend mode="normal" in="SourceGraphic" in2="BackgroundImageFix" result="shape"/>
<feGaussianBlur stdDeviation="0.5" result="effect1_foregroundBlur_913_9572"/>
</filter>
<filter id="filter2_i_913_9572" x="3" y="2.375" width="18.7975" height="8.7975" filterUnits="userSpaceOnUse" color-interpolation-filters="sRGB">
<feFlood flood-opacity="0" result="BackgroundImageFix"/>
<feBlend mode="normal" in="SourceGraphic" in2="BackgroundImageFix" result="shape"/>
<feColorMatrix in="SourceAlpha" type="matrix" values="0 0 0 0 0 0 0 0 0 0 0 0 0 0 0 0 0 0 127 0" result="hardAlpha"/>
<feOffset dx="0.125" dy="-0.125"/>
<feGaussianBlur stdDeviation="0.25"/>
<feComposite in2="hardAlpha" operator="arithmetic" k2="-1" k3="1"/>
<feColorMatrix type="matrix" values="0 0 0 0 0.507148 0 0 0 0 0.6625 0 0 0 0 0.339531 0 0 0 1 0"/>
<feBlend mode="normal" in2="shape" result="effect1_innerShadow_913_9572"/>
</filter>
<filter id="filter3_f_913_9572" x="3.8075" y="2.8475" width="17.7562" height="7.97625" filterUnits="userSpaceOnUse" color-interpolation-filters="sRGB">
<feFlood flood-opacity="0" result="BackgroundImageFix"/>
<feBlend mode="normal" in="SourceGraphic" in2="BackgroundImageFix" result="shape"/>
<feGaussianBlur stdDeviation="0.5" result="effect1_foregroundBlur_913_9572"/>
</filter>
<filter id="filter4_i_913_9572" x="8.06152" y="26.1725" width="23.7515" height="11.3901" filterUnits="userSpaceOnUse" color-interpolation-filters="sRGB">
<feFlood flood-opacity="0" result="BackgroundImageFix"/>
<feBlend mode="normal" in="SourceGraphic" in2="BackgroundImageFix" result="shape"/>
<feColorMatrix in="SourceAlpha" type="matrix" values="0 0 0 0 0 0 0 0 0 0 0 0 0 0 0 0 0 0 127 0" result="hardAlpha"/>
<feOffset dx="0.075" dy="0.075"/>
<feGaussianBlur stdDeviation="0.125"/>
<feComposite in2="hardAlpha" operator="arithmetic" k2="-1" k3="1"/>
<feColorMatrix type="matrix" values="0 0 0 0 0.556863 0 0 0 0 0.490196 0 0 0 0 0.486275 0 0 0 1 0"/>
<feBlend mode="normal" in2="shape" result="effect1_innerShadow_913_9572"/>
</filter>
<filter id="filter5_f_913_9572" x="14.455" y="3.47623" width="6.67883" height="6.44505" filterUnits="userSpaceOnUse" color-interpolation-filters="sRGB">
<feFlood flood-opacity="0" result="BackgroundImageFix"/>
<feBlend mode="normal" in="SourceGraphic" in2="BackgroundImageFix" result="shape"/>
<feGaussianBlur stdDeviation="0.25" result="effect1_foregroundBlur_913_9572"/>
</filter>
<linearGradient id="paint0_linear_913_9572" x1="19.8549" y1="9.605" x2="19.8549" y2="24.0475" gradientUnits="userSpaceOnUse">
<stop stop-color="#82BB30"/>
<stop offset="1" stop-color="#94D22F"/>
</linearGradient>
<linearGradient id="paint1_linear_913_9572" x1="19.8549" y1="9.605" x2="19.8549" y2="24.0475" gradientUnits="userSpaceOnUse">
<stop stop-color="#82BB30"/>
<stop offset="1" stop-color="#97D630"/>
</linearGradient>
<linearGradient id="paint2_linear_913_9572" x1="17.6399" y1="22.9725" x2="19.2012" y2="22.9725" gradientUnits="userSpaceOnUse">
<stop stop-color="#86B95C"/>
<stop offset="1" stop-color="#86B95C" stop-opacity="0"/>
</linearGradient>
<linearGradient id="paint3_linear_913_9572" x1="18.8487" y1="10.5475" x2="19.3024" y2="12.0388" gradientUnits="userSpaceOnUse">
<stop stop-color="#86B95C"/>
<stop offset="1" stop-color="#86B95C" stop-opacity="0"/>
</linearGradient>
<linearGradient id="paint4_linear_913_9572" x1="22.0737" y1="16.9513" x2="20.8899" y2="17.0275" gradientUnits="userSpaceOnUse">
<stop stop-color="#86B95C"/>
<stop offset="1" stop-color="#86B95C" stop-opacity="0"/>
</linearGradient>
<linearGradient id="paint5_linear_913_9572" x1="20.2087" y1="11.1725" x2="20.2087" y2="26.8525" gradientUnits="userSpaceOnUse">
<stop stop-color="#9ED75B"/>
<stop offset="1" stop-color="#BCF461"/>
</linearGradient>
<linearGradient id="paint6_linear_913_9572" x1="25.4" y1="17.5" x2="36.7875" y2="7.90625" gradientUnits="userSpaceOnUse">
<stop stop-color="#8DB746"/>
<stop offset="1" stop-color="#ABEE48"/>
</linearGradient>
<linearGradient id="paint7_linear_913_9572" x1="28.02" y1="17.7325" x2="28.02" y2="16.6737" gradientUnits="userSpaceOnUse">
<stop stop-color="#97B86E"/>
<stop offset="1" stop-color="#97B86E" stop-opacity="0"/>
</linearGradient>
<linearGradient id="paint8_linear_913_9572" x1="22.0712" y1="9.8825" x2="24.1025" y2="12.2662" gradientUnits="userSpaceOnUse">
<stop stop-color="#6CAF09"/>
<stop offset="1" stop-color="#6CAF09" stop-opacity="0"/>
</linearGradient>
<radialGradient id="paint9_radial_913_9572" cx="0" cy="0" r="1" gradientUnits="userSpaceOnUse" gradientTransform="translate(38.2822 8.82836) rotate(145.134) scale(5.80824 0.6796)">
<stop stop-color="#CBFF78"/>
<stop offset="1" stop-color="#CBFF78" stop-opacity="0"/>
</radialGradient>
<linearGradient id="paint10_linear_913_9572" x1="26.0538" y1="16.5237" x2="34.9113" y2="8.86875" gradientUnits="userSpaceOnUse">
<stop stop-color="#A0CC4C"/>
<stop offset="1" stop-color="#C2FD65"/>
</linearGradient>
<linearGradient id="paint11_linear_913_9572" x1="22.9313" y1="10.5475" x2="4.25875" y2="1.71875" gradientUnits="userSpaceOnUse">
<stop stop-color="#97DA22"/>
<stop offset="1" stop-color="#90CD2F"/>
</linearGradient>
<linearGradient id="paint12_linear_913_9572" x1="21.625" y1="9.39375" x2="8.23" y2="2.18875" gradientUnits="userSpaceOnUse">
<stop stop-color="#B6EB53"/>
<stop offset="1" stop-color="#A0D930"/>
</linearGradient>
<radialGradient id="paint13_radial_913_9572" cx="0" cy="0" r="1" gradientUnits="userSpaceOnUse" gradientTransform="translate(25.4175 38.43) rotate(-135.607) scale(14.0242 13.3929)">
<stop stop-color="#BF8B88"/>
<stop offset="1" stop-color="#835146"/>
</radialGradient>
<linearGradient id="paint14_linear_913_9572" x1="19.9" y1="37.6425" x2="19.9" y2="36.9238" gradientUnits="userSpaceOnUse">
<stop stop-color="#964972"/>
<stop offset="1" stop-color="#964972" stop-opacity="0"/>
</linearGradient>
<radialGradient id="paint15_radial_913_9572" cx="0" cy="0" r="1" gradientUnits="userSpaceOnUse" gradientTransform="translate(15.2985 39.2258) rotate(-75.259) scale(8.64867 6.2635)">
<stop stop-color="#A3646D"/>
<stop offset="1" stop-color="#A3646D" stop-opacity="0"/>
</radialGradient>
<radialGradient id="paint16_radial_913_9572" cx="0" cy="0" r="1" gradientUnits="userSpaceOnUse" gradientTransform="translate(32.2255 26.1708) rotate(134.291) scale(7.90409 14.4118)">
<stop stop-color="#BF8B88"/>
<stop offset="1" stop-color="#BF8B88" stop-opacity="0"/>
</radialGradient>
<linearGradient id="paint17_linear_913_9572" x1="19.8062" y1="8.59375" x2="18.0637" y2="2.7775" gradientUnits="userSpaceOnUse">
<stop stop-color="#D1FF77"/>
<stop offset="1" stop-color="#D1FF77" stop-opacity="0"/>
</linearGradient>
</defs>
</svg>
