<svg width="40" height="41" viewBox="0 0 40 41" fill="none" xmlns="http://www.w3.org/2000/svg">
<path d="M18.3335 6.83333H6.66683C5.78277 6.83333 4.93493 7.1933 4.30981 7.83405C3.68469 8.4748 3.3335 9.34384 3.3335 10.25V34.1667C3.3335 35.0728 3.68469 35.9419 4.30981 36.5826C4.93493 37.2234 5.78277 37.5833 6.66683 37.5833H30.0002C30.8842 37.5833 31.7321 37.2234 32.3572 36.5826C32.9823 35.9419 33.3335 35.0728 33.3335 34.1667V22.2083M30.8335 4.27083C31.4965 3.59122 32.3958 3.20941 33.3335 3.20941C34.2712 3.20941 35.1705 3.59122 35.8335 4.27083C36.4965 4.95045 36.869 5.87221 36.869 6.83333C36.869 7.79446 36.4965 8.71622 35.8335 9.39583L20.0002 25.625L13.3335 27.3333L15.0002 20.5L30.8335 4.27083Z" stroke="#2B3284" stroke-width="4" stroke-linecap="round" stroke-linejoin="round"/>
</svg>
