<svg width="40" height="41" viewBox="0 0 40 41" fill="none" xmlns="http://www.w3.org/2000/svg">
<path d="M20.0001 3.83008C29.2062 3.83008 36.6692 11.2931 36.6692 20.4993C36.6692 29.7055 29.2062 37.1685 20.0001 37.1685C10.7939 37.1685 3.33081 29.7055 3.33081 20.4993C3.33081 11.2931 10.7939 3.83008 20.0001 3.83008ZM20.0001 6.33008C12.1746 6.33008 5.83081 12.6739 5.83081 20.4993C5.83081 28.3248 12.1746 34.6685 20.0001 34.6685C27.8256 34.6685 34.1692 28.3248 34.1692 20.4993C34.1692 12.6739 27.8256 6.33008 20.0001 6.33008ZM19.9939 17.9977C20.6267 17.9973 21.1501 18.4672 21.2332 19.0773L21.2447 19.2468L21.2507 28.4162C21.2512 29.1065 20.6919 29.6667 20.0016 29.667C19.3687 29.6675 18.8454 29.1975 18.7622 28.5875L18.7507 28.4178L18.7447 19.2485C18.7444 18.5582 19.3036 17.9982 19.9939 17.9977ZM20.0007 12.1681C20.9201 12.1681 21.6652 12.9133 21.6652 13.8325C21.6652 14.7518 20.9201 15.497 20.0007 15.497C19.0816 15.497 18.3364 14.7518 18.3364 13.8325C18.3364 12.9133 19.0816 12.1681 20.0007 12.1681Z" fill="#3E3E3E"/>
</svg>
