<svg width="38" height="47" viewBox="0 0 38 47" fill="none" xmlns="http://www.w3.org/2000/svg">
<path d="M18.6667 23.3333C19.95 23.3333 21.0486 22.8764 21.9625 21.9625C22.8764 21.0486 23.3333 19.95 23.3333 18.6667C23.3333 17.3833 22.8764 16.2847 21.9625 15.3708C21.0486 14.4569 19.95 14 18.6667 14C17.3833 14 16.2847 14.4569 15.3708 15.3708C14.4569 16.2847 14 17.3833 14 18.6667C14 19.95 14.4569 21.0486 15.3708 21.9625C16.2847 22.8764 17.3833 23.3333 18.6667 23.3333ZM18.6667 46.6667C12.4056 41.3389 7.72917 36.3903 4.6375 31.8208C1.54583 27.2514 0 23.0222 0 19.1333C0 13.3 1.87639 8.65278 5.62917 5.19167C9.38195 1.73056 13.7278 0 18.6667 0C23.6056 0 27.9514 1.73056 31.7042 5.19167C35.4569 8.65278 37.3333 13.3 37.3333 19.1333C37.3333 23.0222 35.7875 27.2514 32.6958 31.8208C29.6042 36.3903 24.9278 41.3389 18.6667 46.6667Z" fill="#1D1B20"/>
</svg>
