<svg width="56" height="55" viewBox="0 0 56 55" fill="none" xmlns="http://www.w3.org/2000/svg">
<path d="M19.6784 1.86619C14.1952 3.76834 9.46659 7.37868 6.187 12.1669C2.90741 16.9551 1.24973 22.6689 1.45745 28.4688C1.66518 34.2688 3.72736 39.8493 7.34109 44.3907C10.9548 48.932 15.9296 52.1948 21.5348 53.6998C26.079 54.8724 30.84 54.9239 35.4085 53.8499C39.5472 52.9203 43.3734 50.9318 46.5127 48.0792C49.78 45.0195 52.1515 41.1272 53.3724 36.8207C54.6994 32.1375 54.9355 27.2125 54.0626 22.4239H28.5445V33.0093H43.3229C43.0276 34.6975 42.3946 36.3089 41.462 37.7469C40.5294 39.1849 39.3162 40.4199 37.8952 41.3781C36.0906 42.5718 34.0563 43.375 31.9229 43.7361C29.7833 44.134 27.5887 44.134 25.4491 43.7361C23.2805 43.2878 21.2291 42.3927 19.4254 41.108C16.5278 39.0569 14.3521 36.143 13.2088 32.782C12.0461 29.3581 12.0461 25.6462 13.2088 22.2224C14.0227 19.8224 15.368 17.6372 17.1446 15.83C19.1776 13.7238 21.7514 12.2183 24.5837 11.4787C27.416 10.739 30.3973 10.7938 33.2006 11.637C35.3904 12.3092 37.3929 13.4837 39.0485 15.0668C40.7148 13.4091 42.3783 11.747 44.0389 10.0807C44.8964 9.18464 45.831 8.33146 46.6756 7.41398C44.1485 5.06228 41.1822 3.23237 37.9466 2.02911C32.0546 -0.110306 25.6076 -0.167801 19.6784 1.86619Z" fill="white"/>
<path d="M19.6785 1.8662C25.6072 -0.169175 32.0542 -0.113194 37.9467 2.02483C41.1829 3.23627 44.1478 5.07499 46.6714 7.43542C45.814 8.35291 44.9093 9.21037 44.0347 10.1021C42.3712 11.7628 40.7092 13.4177 39.0486 15.0668C37.393 13.4837 35.3905 12.3092 33.2007 11.637C30.3984 10.7909 27.4172 10.7329 24.5841 11.4695C21.751 12.2062 19.1756 13.7089 17.1404 15.8128C15.3639 17.6201 14.0185 19.8053 13.2046 22.2052L4.31702 15.3241C7.49824 9.01556 13.0063 4.19003 19.6785 1.8662Z" fill="#E33629"/>
<path d="M1.95898 22.1409C2.43668 19.7734 3.22976 17.4807 4.31701 15.324L13.2046 22.2223C12.042 25.6462 12.042 29.3581 13.2046 32.782C10.2435 35.0686 7.28097 37.3666 4.31701 39.676C1.59521 34.2582 0.765106 28.0852 1.95898 22.1409Z" fill="#F8BD00"/>
<path d="M28.5446 22.4196H54.0627C54.9356 27.2082 54.6995 32.1332 53.3725 36.8164C52.1516 41.1229 49.7801 45.0152 46.5128 48.0749C43.6446 45.8369 40.7635 43.616 37.8953 41.3781C39.3173 40.4189 40.531 39.1825 41.4636 37.743C42.3963 36.3035 43.0287 34.6905 43.323 33.0007H28.5446C28.5403 29.4765 28.5446 25.948 28.5446 22.4196Z" fill="#587DBD"/>
<path d="M4.31262 39.676C7.27659 37.3894 10.2391 35.0914 13.2002 32.782C14.3458 36.1441 16.5246 39.0582 19.4254 41.1079C21.2347 42.3867 23.2906 43.2745 25.462 43.7146C27.6016 44.1125 29.7962 44.1125 31.9358 43.7146C34.0691 43.3535 36.1034 42.5503 37.908 41.3566C40.7762 43.5946 43.6573 45.8154 46.5255 48.0534C43.3867 50.9076 39.5604 52.8976 35.4214 53.8284C30.8529 54.9024 26.0919 54.8509 21.5476 53.6784C17.9536 52.7187 14.5965 51.0271 11.6868 48.7094C8.60706 46.2643 6.09167 43.1829 4.31262 39.676Z" fill="#319F43"/>
</svg>
