<svg width="59" height="57" viewBox="0 0 59 57" fill="none" xmlns="http://www.w3.org/2000/svg">
<path d="M29.4506 21.5303C27.5486 21.5303 25.7244 22.2688 24.3794 23.5835C23.0345 24.8981 22.2789 26.6812 22.2789 28.5404C22.2789 30.3996 23.0345 32.1826 24.3794 33.4973C25.7244 34.8119 27.5486 35.5505 29.4506 35.5505C31.3527 35.5505 33.1768 34.8119 34.5218 33.4973C35.8668 32.1826 36.6223 30.3996 36.6223 28.5404C36.6223 26.6812 35.8668 24.8981 34.5218 23.5835C33.1768 22.2688 31.3527 21.5303 29.4506 21.5303ZM29.4506 40.2239C26.2805 40.2239 23.2403 38.993 20.9987 36.8019C18.7571 34.6108 17.4977 31.639 17.4977 28.5404C17.4977 25.4417 18.7571 22.47 20.9987 20.2789C23.2403 18.0878 26.2805 16.8569 29.4506 16.8569C32.6207 16.8569 35.661 18.0878 37.9026 20.2789C40.1442 22.47 41.4035 25.4417 41.4035 28.5404C41.4035 31.639 40.1442 34.6108 37.9026 36.8019C35.661 38.993 32.6207 40.2239 29.4506 40.2239ZM29.4506 11.0151C17.4977 11.0151 7.28999 18.2823 3.1543 28.5404C7.28999 38.7985 17.4977 46.0656 29.4506 46.0656C41.4035 46.0656 51.6112 38.7985 55.7469 28.5404C51.6112 18.2823 41.4035 11.0151 29.4506 11.0151Z" fill="#1E1E1E"/>
</svg>
