<svg width="50" height="50" viewBox="0 0 50 50" fill="none" xmlns="http://www.w3.org/2000/svg">
<path d="M6.25 6.25L43.75 43.75" stroke="#1E1E1E" stroke-width="4" stroke-linecap="round" stroke-linejoin="round"/>
<path fill-rule="evenodd" clip-rule="evenodd" d="M11.25 12.9792C10.3333 13.6667 9.49374 14.3917 8.72916 15.1292C6.17572 17.6091 4.06168 20.5044 2.47708 23.6917C2.27976 24.0992 2.17726 24.5462 2.17726 24.999C2.17726 25.4518 2.27976 25.8987 2.47708 26.3063C4.06085 29.4942 6.17419 32.3902 8.72708 34.8708C12.375 38.3813 17.7458 41.6667 25 41.6667C29.6583 41.6667 33.5417 40.3125 36.6875 38.4125L28.4708 30.1979C27.2686 31.001 25.8251 31.3624 24.3862 31.2206C22.9474 31.0788 21.6022 30.4425 20.5798 29.4202C19.5575 28.3978 18.9212 27.0526 18.7794 25.6138C18.6376 24.175 18.999 22.7314 19.8021 21.5292L11.2521 12.9771L11.25 12.9792ZM43.0542 32.9958C44.8256 30.9685 46.3276 28.7207 47.5229 26.3083C47.7202 25.9008 47.8227 25.4539 47.8227 25.0011C47.8227 24.5482 47.7202 24.1013 47.5229 23.6938C45.9391 20.5059 43.8258 17.6099 41.2729 15.1292C37.625 11.6188 32.2562 8.33335 25 8.33335C23.0253 8.32762 21.0584 8.58189 19.15 9.0896L43.0542 32.9958Z" fill="#1E1E1E"/>
</svg>
