<svg width="300" height="300" viewBox="0 0 300 300" fill="none" xmlns="http://www.w3.org/2000/svg">
<circle cx="150" cy="150" r="145" fill="#E9E9E9" stroke="#1C8A1A" stroke-width="10"/>
<path d="M181.25 99C181.25 107.288 177.958 115.237 172.097 121.097C166.237 126.958 158.288 130.25 150 130.25C141.712 130.25 133.763 126.958 127.903 121.097C122.042 115.237 118.75 107.288 118.75 99C118.75 90.712 122.042 82.7634 127.903 76.9029C133.763 71.0424 141.712 67.75 150 67.75C158.288 67.75 166.237 71.0424 172.097 76.9029C177.958 82.7634 181.25 90.712 181.25 99ZM87.5083 216.65C87.7761 200.253 94.4778 184.618 106.168 173.117C117.858 161.616 133.601 155.171 150 155.171C166.399 155.171 182.142 161.616 193.832 173.117C205.522 184.618 212.224 200.253 212.492 216.65C192.889 225.648 171.569 230.288 150 230.25C127.7 230.25 106.533 225.383 87.5083 216.65Z" stroke="#797979" stroke-width="10" stroke-linecap="round" stroke-linejoin="round"/>
</svg>
