<svg width="53" height="53" viewBox="0 0 53 53" fill="none" xmlns="http://www.w3.org/2000/svg">
<path d="M52.5 11.6667V46.6667C52.5 48.2708 51.9293 49.6446 50.7879 50.7879C49.6465 51.9312 48.2728 52.5019 46.6667 52.5H5.83333C4.22917 52.5 2.85639 51.9293 1.715 50.7879C0.573611 49.6465 0.00194444 48.2728 0 46.6667V5.83333C0 4.22917 0.571667 2.85639 1.715 1.715C2.85833 0.573611 4.23111 0.00194444 5.83333 0H40.8333L52.5 11.6667ZM26.25 43.75C28.6806 43.75 30.7465 42.8993 32.4479 41.1979C34.1493 39.4965 35 37.4306 35 35C35 32.5694 34.1493 30.5035 32.4479 28.8021C30.7465 27.1007 28.6806 26.25 26.25 26.25C23.8194 26.25 21.7535 27.1007 20.0521 28.8021C18.3507 30.5035 17.5 32.5694 17.5 35C17.5 37.4306 18.3507 39.4965 20.0521 41.1979C21.7535 42.8993 23.8194 43.75 26.25 43.75ZM8.75 20.4167H35V8.75H8.75V20.4167Z" fill="white"/>
</svg>
