<svg width="30" height="29" viewBox="0 0 30 29" fill="none" xmlns="http://www.w3.org/2000/svg">
<path d="M5.9375 11.7812C5.9375 14.3811 6.78144 16.7826 8.20312 18.7311L1.03242 25.9074C0.324413 26.6154 0.324413 27.7652 1.03242 28.4732C1.74043 29.1813 2.89024 29.1813 3.59824 28.4732L10.7689 21.2969C12.7174 22.7186 15.1189 23.5625 17.7188 23.5625C24.2268 23.5625 29.5 18.2893 29.5 11.7812C29.5 5.27324 24.2268 0 17.7188 0C11.2107 0 5.9375 5.27324 5.9375 11.7812ZM17.7188 19.9375C16.6477 19.9375 15.5871 19.7265 14.5975 19.3166C13.6079 18.9068 12.7088 18.306 11.9514 17.5486C11.194 16.7912 10.5932 15.8921 10.1834 14.9025C9.77347 13.9129 9.5625 12.8523 9.5625 11.7812C9.5625 10.7102 9.77347 9.64955 10.1834 8.65999C10.5932 7.67043 11.194 6.77129 11.9514 6.01391C12.7088 5.25653 13.6079 4.65575 14.5975 4.24586C15.5871 3.83597 16.6477 3.625 17.7188 3.625C18.7898 3.625 19.8504 3.83597 20.84 4.24586C21.8296 4.65575 22.7287 5.25653 23.4861 6.01391C24.2435 6.77129 24.8443 7.67043 25.2541 8.65999C25.664 9.64955 25.875 10.7102 25.875 11.7812C25.875 12.8523 25.664 13.9129 25.2541 14.9025C24.8443 15.8921 24.2435 16.7912 23.4861 17.5486C22.7287 18.306 21.8296 18.9068 20.84 19.3166C19.8504 19.7265 18.7898 19.9375 17.7188 19.9375Z" fill="#1E1E1E" fill-opacity="0.9"/>
</svg>
